<?xml version="1.0" encoding="UTF-8"?>
<svg width="400" height="400" viewBox="0 0 400 400" version="1.1" xmlns="http://www.w3.org/2000/svg">
    <g>
        <!-- 돈키호테 캐릭터 -->
        <g transform="translate(50, 50)">
            <!-- 모자 -->
            <path d="M100 50 C100 50 120 30 150 30 C180 30 200 50 200 50 L190 60 C190 60 180 45 150 45 C120 45 110 60 110 60 L100 50Z" fill="currentColor"/>
            <path d="M190 55 L200 50 L205 55 L200 60 L190 55Z" fill="currentColor"/>
            
            <!-- 얼굴 -->
            <path d="M120 70 C120 70 135 120 150 120 C165 120 180 70 180 70" fill="currentColor"/>
            
            <!-- 눈썹과 눈 -->
            <path d="M130 80 C130 80 140 85 145 85 M170 80 C170 80 160 85 155 85" fill="currentColor"/>
            <path d="M135 90 C135 90 145 95 150 95 C155 95 165 90 165 90" fill="currentColor"/>
            
            <!-- 수염 -->
            <path d="M140 100 L130 110 M160 100 L170 110" fill="currentColor"/>
            <path d="M145 100 L140 115 M155 100 L160 115" fill="currentColor"/>
            
            <!-- 옷깃과 몸통 -->
            <path d="M130 120 L120 150 L140 150 L150 140 L160 150 L180 150 L170 120Z" fill="currentColor"/>
            <path d="M120 150 L120 200 L180 200 L180 150" fill="currentColor"/>
            <path d="M120 170 L140 170 L150 160 L160 170 L180 170" fill="currentColor"/>
            
            <!-- 소매 -->
            <path d="M120 150 L100 180 L110 190 L120 180" fill="currentColor"/>
            <path d="M180 150 L200 180 L190 190 L180 180" fill="currentColor"/>
            
            <!-- 포크 -->
            <path d="M80 100 L90 100 L90 170 L80 170Z" fill="currentColor"/>
            <path d="M82 85 L88 85 L88 100 L82 100Z" fill="currentColor"/>
            <path d="M82 70 L88 70 L88 85 L82 85Z" fill="currentColor"/>
            <path d="M82 55 L88 55 L88 70 L82 70Z" fill="currentColor"/>
        </g>
        
        <!-- 돈키 텍스트 -->
        <text x="250" y="150" font-size="60" font-weight="bold" fill="currentColor">돈키</text>
        
        <!-- FOOD 텍스트 -->
        <text x="250" y="220" font-size="50" fill="currentColor">FOOD</text>
    </g>
</svg> 