<?xml version="1.0" encoding="UTF-8" standalone="no"?>
<!-- Created with Inkscape (http://www.inkscape.org/) -->

<svg
   width="163.19633mm"
   height="51.756046mm"
   viewBox="0 0 163.19633 51.756046"
   version="1.1"
   id="svg1"
   xml:space="preserve"
   xmlns="http://www.w3.org/2000/svg"
   xmlns:svg="http://www.w3.org/2000/svg"><defs
     id="defs1"><rect
       x="383.94586"
       y="693.09705"
       width="257.86346"
       height="42.739796"
       id="rect6" /><rect
       x="409.58972"
       y="391.06915"
       width="307.01422"
       height="92.60289"
       id="rect3" /><rect
       x="403.89108"
       y="454.46652"
       width="314.13751"
       height="89.753578"
       id="rect2" /></defs><g
     id="layer1"
     transform="translate(-8.5224556,-110.91472)"><path
       style="fill:#f14910;fill-opacity:1;stroke-width:2.1479"
       d="m 34.08966,162.39218 c -5.927701,-0.14713 -6.932503,-0.22613 -6.636905,-0.52174 0.05563,-0.0556 1.94271,-0.17785 4.193404,-0.27156 l 4.092169,-0.17032 -0.835873,-0.54317 c -0.459736,-0.29873 -1.13284,-0.96707 -1.49578,-1.48521 -0.605437,-0.86433 -0.659878,-1.08982 -0.659878,-2.73277 0,-1.61235 0.06497,-1.89492 0.65177,-2.83692 1.778559,-2.85486 5.705603,-3.21015 8.08187,-0.73113 2.28337,2.38209 1.6254,6.38182 -1.33443,8.11193 -0.249861,0.14605 5.686598,0.21727 18.112014,0.21727 10.16603,0 18.48368,-0.0246 18.48368,-0.0548 -2e-5,-0.0301 -0.39817,-0.41458 -0.8848,-0.85422 -1.31131,-1.18469 -1.81474,-2.28806 -1.8156,-3.97922 -0.001,-3.49012 3.12304,-5.88418 6.42067,-4.91918 2.28712,0.6693 3.77261,2.62434 3.74896,4.93403 -0.0172,1.58989 -0.91114,3.28543 -2.22106,4.20849 l -0.94365,0.66497 1.26953,0.0509 c 6.21585,0.24911 4.53479,0.65358 -3.83602,0.92297 -7.46816,0.24034 -34.548078,0.23411 -44.390071,-0.0108 z m 45.803351,-3.24489 c 0.53239,0 1.61264,-1.10335 1.82174,-1.86067 0.48777,-1.76651 -0.73473,-3.35355 -2.58323,-3.35355 -2.48234,0 -3.65906,2.85983 -1.86878,4.54169 0.5533,0.51982 1.58925,0.90512 2.04948,0.76232 0.15916,-0.0494 0.4205,-0.0898 0.58079,-0.0898 z m -40.719808,-0.37067 c 1.170605,-0.69148 1.614287,-2.37452 0.930937,-3.53133 -1.376406,-2.33007 -5.076139,-1.38374 -5.076139,1.29839 0,2.06814 2.314029,3.31466 4.145202,2.23294 z m -21.091375,3.41229 c 0,-0.13225 0.977662,-0.21725 2.498483,-0.21725 1.520808,0 2.49847,0.085 2.49847,0.21725 0,0.13224 -0.977662,0.21726 -2.49847,0.21726 -1.520821,0 -2.498483,-0.085 -2.498483,-0.21726 z m 71.803983,0 c -0.0865,-0.14005 0.75816,-0.21725 2.37704,-0.21725 1.52935,0 2.5113,0.085 2.5113,0.21725 0,0.1317 -0.93719,0.21726 -2.37704,0.21726 -1.35032,0 -2.43501,-0.0938 -2.5113,-0.21726 z m 9.66801,0 c 0,-0.13171 0.941469,-0.21725 2.389849,-0.21725 1.44839,0 2.38986,0.0857 2.38986,0.21725 0,0.1317 -0.94147,0.21726 -2.38986,0.21726 -1.44838,0 -2.389849,-0.0857 -2.389849,-0.21726 z m 9.559379,0 c 0,-0.13171 0.94147,-0.21725 2.38986,-0.21725 1.44839,0 2.38984,0.0857 2.38984,0.21725 0,0.1317 -0.94145,0.21726 -2.38984,0.21726 -1.44839,0 -2.38986,-0.0857 -2.38986,-0.21726 z m 9.55939,0 c 0,-0.13225 0.97766,-0.21725 2.49846,-0.21725 1.52082,0 2.49848,0.085 2.49848,0.21725 0,0.13224 -0.97766,0.21726 -2.49848,0.21726 -1.5208,0 -2.49846,-0.085 -2.49846,-0.21726 z m 9.77664,0 c 0,-0.13171 0.94144,-0.21725 2.38983,-0.21725 1.4484,0 2.38985,0.0857 2.38985,0.21725 0,0.1317 -0.94145,0.21726 -2.38985,0.21726 -1.44839,0 -2.38983,-0.0857 -2.38983,-0.21726 z m 9.55938,0 c 0,-0.13225 0.97765,-0.21725 2.49847,-0.21725 1.5208,0 2.49848,0.085 2.49848,0.21725 0,0.13224 -0.97768,0.21726 -2.49848,0.21726 -1.52082,0 -2.49847,-0.085 -2.49847,-0.21726 z M 19.173436,156.75745 c -0.09313,-0.0597 -0.237556,-0.51678 -0.320924,-1.01566 -0.125343,-0.75016 -0.07472,-0.98383 0.292824,-1.35139 0.436548,-0.43656 0.445455,-0.67738 0.505162,-13.64931 0.05942,-12.90031 0.07133,-13.22749 0.517683,-14.1826 0.544377,-1.16479 1.392487,-2.04622 2.581866,-2.68326 0.794494,-0.42555 1.262392,-0.47322 5.271368,-0.53732 5.013265,-0.0801 5.102751,-0.0425 3.420026,1.4387 -1.463888,1.28857 -3.105463,1.61574 -5.278637,1.05202 -1.119574,-0.29042 -1.136223,-0.28768 -0.997141,0.16303 0.535009,1.73336 1.876776,3.27911 3.670469,4.22849 0.97547,0.5163 1.31904,0.57496 3.367506,0.57496 2.049794,0 2.404856,-0.0608 3.49993,-0.59849 2.089697,-1.02624 4.003846,-3.42547 4.765827,-5.97359 0.210917,-0.70534 0.383785,-0.92333 0.732174,-0.92333 0.431703,0 0.451844,0.0926 0.377315,1.73358 -0.100301,2.2097 0.399799,4.50557 1.430157,6.56515 0.737629,1.47445 0.758935,1.57503 0.379467,1.7916 -0.221123,0.12615 -0.799515,0.58208 -1.285335,1.01306 -0.629802,0.55875 -1.158476,0.81917 -1.842151,0.90745 -1.252078,0.16173 -1.949979,0.7082 -2.621472,2.05282 -0.301175,0.6031 -1.043975,1.54113 -1.650671,2.08454 -1.183532,1.06007 -2.350928,3.0064 -2.596159,4.32843 -0.147583,0.79562 -0.135685,0.81472 0.507964,0.81472 0.571421,0 0.693056,-0.10843 0.914328,-0.81472 0.38032,-1.21406 1.430279,-2.66433 2.614338,-3.61112 0.660813,-0.52839 1.103331,-1.0755 1.190354,-1.47169 0.07621,-0.34685 0.383338,-0.9216 0.682565,-1.2772 0.445076,-0.52895 0.710652,-0.64659 1.459787,-0.64659 0.766637,0 1.037627,-0.1267 1.664437,-0.77894 0.411792,-0.42842 1.012518,-0.91715 1.334945,-1.08606 0.322427,-0.16882 0.840963,-0.64111 1.152304,-1.04931 l 0.566088,-0.74216 -0.865883,-1.72217 c -1.241749,-2.46974 -1.615748,-4.0864 -1.494886,-6.46195 0.131029,-2.57501 0.804349,-4.0493 2.705395,-5.92367 l 1.380602,-1.36123 -0.602744,-0.23447 c -0.794521,-0.30908 -2.841214,-0.11925 -3.772083,0.34996 -1.012274,0.51019 -2.321826,1.78909 -2.81999,2.75401 -0.226823,0.43935 -0.621464,1.56365 -0.876982,2.49849 -0.896001,3.27796 -1.852371,4.66742 -3.925825,5.70354 -1.122011,0.56067 -1.586647,0.66716 -2.910885,0.66716 -1.354017,0 -1.767094,-0.0995 -2.935492,-0.70608 -0.747863,-0.38836 -1.396006,-0.81626 -1.440336,-0.9509 -0.05157,-0.15678 0.385518,-0.27851 1.215747,-0.33856 1.037126,-0.075 1.535981,-0.25288 2.494788,-0.88949 1.920525,-1.27517 2.559897,-2.68571 2.958125,-6.5261 0.258063,-2.48869 0.79264,-4.13499 1.797631,-5.53601 2.370488,-3.30459 7.024751,-4.47576 10.664954,-2.68369 1.679949,0.82703 3.611045,2.79702 4.165875,4.24979 0.35111,0.9194 0.45283,1.00425 1.59765,1.3326 1.65476,0.4746 2.80365,1.17456 3.92544,2.39155 l 0.93974,1.01948 0.75457,-0.35983 c 0.97401,-0.46447 1.15323,-0.31027 1.99798,1.71892 0.74332,1.78552 0.82666,2.52921 0.32966,2.94169 -0.45918,0.38108 -0.0428,0.63041 1.09656,0.65644 l 0.86905,0.0194 -0.75428,0.27236 -0.75426,0.27237 -0.37969,2.31178 c -0.20876,1.2715 -0.66084,3.036 -1.00452,3.92107 -0.83889,2.16039 -2.19108,4.54368 -2.50385,4.41315 -0.13876,-0.0578 -0.76219,-0.32109 -1.38557,-0.58491 -0.6234,-0.26383 -1.26425,-0.42953 -1.42409,-0.36818 -0.15981,0.0615 -0.41721,0.49498 -0.57189,0.96361 -0.27974,0.84762 -0.2751,0.86105 0.89026,2.57587 0.96589,1.4213 1.75067,3.09892 2.25464,4.81975 0.0662,0.22575 1.61397,0.41983 1.61397,0.20234 0,-0.038 -0.15766,-0.60021 -0.35032,-1.24924 -0.4157,-1.40032 -1.43871,-3.50198 -2.19406,-4.50752 -0.62923,-0.83762 -0.56882,-1.00813 0.24718,-0.6979 0.32306,0.12291 0.92085,0.22335 1.32837,0.22335 0.69446,0 0.80288,-0.10572 1.72792,-1.68376 0.54283,-0.92608 1.26986,-2.417 1.61558,-3.31319 0.59923,-1.55325 1.31873,-4.50002 1.31873,-5.40084 0,-0.25244 0.3065,-0.60306 0.7622,-0.87194 1.04676,-0.61761 1.36675,-1.35981 0.896,-2.07826 -0.1974,-0.30114 -0.65112,-0.69871 -1.00848,-0.88352 -0.35735,-0.18471 -0.64972,-0.43123 -0.64972,-0.54765 0,-0.1336 2.90696,-0.21092 7.87561,-0.20963 7.7991,0.003 7.88618,0.007 8.96191,0.51021 2.13307,0.99768 2.31178,1.3341 6.9462,13.0743 1.02928,2.60745 2.31816,5.13284 2.72182,5.33306 0.17913,0.0889 0.87546,0.41553 1.54717,0.7258 1.40058,0.64698 2.22035,1.6593 2.5643,3.16665 0.12263,0.53772 0.22548,2.55592 0.2284,4.48487 0.004,2.91372 0.0604,3.52837 0.33119,3.63227 0.23535,0.0901 0.3259,0.45901 0.3259,1.3268 v 1.20172 h -3.88039 -3.8804 l -0.13171,-1.11129 c -0.27226,-2.29884 -1.6266,-4.16959 -3.78897,-5.23371 -1.26138,-0.62073 -1.67277,-0.71516 -3.0948,-0.71043 -1.34392,0.004 -1.86204,0.11411 -2.86967,0.60709 -2.29448,1.12259 -4.08001,3.6766 -4.08001,5.836 v 0.61234 h -13.66405 c -14.989415,0 -13.921346,0.0971 -13.932581,-1.26699 -0.01394,-1.70464 -1.804345,-4.06859 -3.840426,-5.07095 -1.222583,-0.6019 -1.679733,-0.71036 -2.981623,-0.7075 -1.914407,0.004 -3.576814,0.70797 -4.916713,2.0814 -0.945041,0.96868 -1.935536,2.77785 -1.944605,3.55188 -0.0027,0.23899 -0.06321,0.65136 -0.134277,0.9164 -0.128727,0.47997 -0.151792,0.48213 -5.775691,0.54315 -3.105573,0.0337 -5.722699,0.0135 -5.815854,-0.0475 z m 71.690055,-7.16953 c 0.68003,-0.68005 0.54842,-1.4462 -0.3259,-1.89714 -0.81002,-0.41778 -2.12516,0.58225 -1.71507,1.30417 0.62187,1.09469 1.3327,1.30121 2.04097,0.59297 z m -45.189812,-5.2957 c 0,-0.32739 -0.738834,-1.3403 -1.410313,-1.93345 -0.844185,-0.74571 -2.572106,-1.5 -3.703714,-1.6168 -1.726797,-0.17828 -2.598162,0.0659 -3.495976,0.97995 -0.853931,0.86927 -1.691077,2.46233 -1.390876,2.64682 0.101655,0.0625 2.393458,0.13703 5.092856,0.16582 4.010601,0.0425 4.908023,-0.001 4.908023,-0.24227 z m 4.343071,-0.0908 c -0.0081,-1.42393 -2.62001,-4.70368 -4.516156,-5.67101 -1.306668,-0.66663 -3.415722,-1.16401 -4.236286,-0.9991 -1.287,0.2587 -1.419463,0.34015 -1.655707,1.01785 -0.384381,1.1026 -0.318122,1.19293 0.972601,1.32613 2.359861,0.24357 5.235593,2.09422 5.95572,3.83278 0.281968,0.68073 0.467248,0.74558 2.341331,0.81923 0.94856,0.0374 1.140257,-0.0172 1.138497,-0.32588 z m 3.828581,-0.30281 c -0.22003,-1.10018 -1.07584,-2.78111 -2.15886,-4.24037 -0.76814,-1.03496 -1.39337,-1.57829 -2.691944,-2.3393 -2.104045,-1.23303 -3.702725,-1.84404 -4.45071,-1.70106 -0.600604,0.11465 -1.756279,1.15192 -1.283616,1.15192 0.148165,0 0.994502,0.33503 1.880769,0.74451 2.572418,1.18854 4.819227,3.59667 5.661201,6.0677 l 0.34383,1.00908 h 1.41891 1.41892 z m 2.17986,0.0363 c -0.28546,-1.42716 -1.59019,-3.79775 -2.59844,-4.72099 -1.30697,-1.19681 -1.64741,-1.17621 -0.80466,0.0487 0.72835,1.05863 1.95875,3.54355 1.95903,3.95647 5.1e-4,0.75838 0.44758,1.37202 0.9996,1.37202 0.52463,0 0.56405,-0.0582 0.44447,-0.65617 z m 21.58551,-3.03724 c 0.40839,-0.40838 0.43452,-0.72418 0.43452,-5.25142 0,-4.17727 -0.0477,-4.86965 -0.35956,-5.21419 -0.31793,-0.35131 -0.73732,-0.39732 -3.62198,-0.39732 -2.73082,0 -3.32714,0.0586 -3.65972,0.35955 -0.36275,0.32832 -0.3973,0.79005 -0.3973,5.31053 0,6.10821 -0.34757,5.62738 4.06763,5.62738 2.81222,0 3.14248,-0.0406 3.53641,-0.43453 z m 5.9517,0.29319 c 1.33233,-0.11249 1.71713,-0.2255 1.89375,-0.55553 0.17591,-0.32882 -0.17011,-1.40487 -1.67907,-5.22126 -1.04543,-2.64389 -2.08338,-4.98973 -2.30661,-5.21295 -0.39482,-0.39483 -1.08782,-0.3709 -1.54576,0.0532 -0.19996,0.18514 -0.20105,10.15371 -0.001,10.47709 0.34377,0.55622 1.20548,0.66497 3.63886,0.45927 z m -2.32328,-1.96062 c -0.15958,-0.25817 1.01409,-2.95789 1.33196,-3.06385 0.16216,-0.0542 0.0608,0.46348 -0.26834,1.37042 -0.54597,1.50412 -0.86584,2.01342 -1.06362,1.69343 z m -28.10093,-2.37873 c 0.20641,-0.43302 0.33708,-0.82568 0.29019,-0.87254 -0.22235,-0.22236 -7.207524,-2.0399 -7.463002,-1.94187 -0.658376,0.25263 -0.213503,0.73943 1.174801,1.28572 0.806568,0.31738 2.101974,0.96486 2.878668,1.43884 1.856693,1.13305 2.611483,1.15479 3.119343,0.0897 z m 5.02367,-2.46325 c 0.86263,-1.71295 1.7329,-4.52831 1.95888,-6.33715 l 0.15228,-1.21882 -0.7276,-0.12521 c -0.40017,-0.0689 -1.68554,-0.24091 -2.85637,-0.38224 -1.76259,-0.21285 -2.11762,-0.31753 -2.06397,-0.60901 0.0971,-0.52682 1.3541,-1.04614 3.54096,-1.46281 1.07543,-0.2049 1.98443,-0.39377 2.02,-0.41975 0.13536,-0.0988 -1.14249,-2.48879 -1.33073,-2.48879 -0.10897,0 -0.74839,0.33414 -1.42124,0.74253 -1.60878,0.97646 -4.80393,2.51547 -5.23113,2.51968 -0.80256,0.008 -0.9102,0.31802 -0.45701,1.3169 0.58956,1.29952 0.55658,1.87448 -0.19266,3.35989 -0.44928,0.89069 -0.58077,1.37253 -0.44418,1.62774 0.26154,0.4887 3.80037,3.68636 4.88049,4.40999 0.47584,0.31879 0.98788,0.57961 1.1379,0.57961 0.14991,0 0.61547,-0.68063 1.03438,-1.51249 z m -2.25256,-0.85767 c -0.24772,-0.15678 -0.18451,-0.47566 0.35461,-1.78905 0.36083,-0.879 0.78382,-2.11145 0.93997,-2.73878 0.15615,-0.62733 0.33876,-1.13926 0.40579,-1.13763 0.067,0.001 0.33037,0.0589 0.5852,0.12737 0.45312,0.12155 0.45626,0.15143 0.1422,1.3549 -0.44881,1.71921 -1.59508,4.3815 -1.8848,4.3775 -0.13279,-0.001 -0.37709,-0.0892 -0.54289,-0.19417 z m -2.2556,-1.45423 c -0.072,-0.0719 -0.0307,-0.38977 0.0919,-0.70608 0.12264,-0.31632 0.3986,-1.25948 0.61321,-2.09594 0.34484,-1.34389 0.44996,-1.52082 0.90377,-1.52082 0.63053,0 0.60674,0.35378 -0.18623,2.77006 -0.40158,1.22357 -0.65362,1.68376 -0.92215,1.68376 -0.20319,0 -0.42847,-0.0589 -0.50051,-0.13102 z m -1.65826,0.86681 c -1.08712,-1.1487 -1.974806,-2.24857 -1.97264,-2.44416 0.0027,-0.19568 0.29549,-0.78585 0.65178,-1.31168 0.79857,-1.17851 0.84944,-2.2995 0.15894,-3.50416 -0.63404,-1.10626 -0.40479,-1.48378 1.14134,-1.87946 1.15064,-0.29446 4.63465,-2.05002 4.89074,-2.4644 0.20577,-0.3328 -1.85344,-2.24342 -3.04475,-2.82517 -0.78142,-0.38157 -1.54359,-0.55136 -2.71574,-0.60499 -1.530662,-0.07 -1.72822,-0.0241 -3.258881,0.757 -1.846781,0.94245 -2.732101,1.93439 -3.457914,3.87432 -0.555489,1.48466 -0.60231,3.92141 -0.111672,5.81466 0.289156,1.11589 1.376,3.53871 1.990533,4.43729 0.172909,0.25296 6.485284,2.11693 7.520654,2.22081 0.10139,0.0108 -0.70526,-0.92137 -1.79239,-2.07006 z m 105.379579,29.49922 c 0.11042,0.0552 -0.21256,-0.16194 -0.21256,-0.27157 0,-0.10951 1.07543,-0.19911 2.38985,-0.19911 1.33505,0 2.38984,0.0896 2.38984,0.20275 0,0.1886 -5.01317,0.0449 -4.56715,0.26792 z m -9.98919,-0.25347 c 0,-0.13225 0.97767,-0.21725 2.49848,-0.21725 1.52081,0 2.49847,0.085 2.49847,0.21725 0,0.13224 -0.97766,0.21726 -2.49847,0.21726 -1.52081,0 -2.49848,-0.085 -2.49848,-0.21726 z m 19.44465,0 c 0.0763,-0.12345 1.16097,-0.21725 2.5113,-0.21725 1.43984,0 2.37702,0.0857 2.37702,0.21725 0,0.13224 -0.98194,0.21726 -2.5113,0.21726 -1.61887,0 -2.46358,-0.0771 -2.37702,-0.21726 z M 8.5224553,162.45351 c 0,-0.13225 0.97766,-0.21725 2.4984697,-0.21725 1.52082,0 2.49848,0.085 2.49848,0.21725 0,0.13224 -0.97766,0.21726 -2.49848,0.21726 -1.5208097,0 -2.4984697,-0.085 -2.4984697,-0.21726 z"
       id="path1" /><text
       xml:space="preserve"
       transform="matrix(0.26458333,0,0,0.26458333,12.315836,23.370359)"
       id="text2"
       style="font-style:normal;font-variant:normal;font-weight:normal;font-stretch:normal;font-size:32px;font-family:HYGungSo-Bold;-inkscape-font-specification:HYGungSo-Bold;text-align:start;writing-mode:lr-tb;direction:ltr;white-space:pre;shape-inside:url(#rect2);display:inline;fill:none"><tspan
         x="403.89062"
         y="485.93555"
         id="tspan3">ehs</tspan></text><text
       xml:space="preserve"
       transform="matrix(0.27746958,0,0,0.27746958,-24.027645,11.977779)"
       id="text3"
       style="font-style:normal;font-variant:normal;font-weight:normal;font-stretch:normal;font-size:64px;font-family:HYGungSo-Bold;-inkscape-font-specification:HYGungSo-Bold;text-align:start;writing-mode:lr-tb;direction:ltr;white-space:pre;shape-inside:url(#rect3);display:inline;fill:#f14910;fill-opacity:1"><tspan
         x="409.58984"
         y="454.00586"
         id="tspan5"><tspan
   style="font-family:HYGothic-Extra;-inkscape-font-specification:HYGothic-Extra"
   id="tspan4">λν‚¤νΈν…</tspan>
</tspan></text><text
       xml:space="preserve"
       transform="matrix(0.26458333,0,0,0.26458333,-20.695508,-40.869129)"
       id="text6"
       style="font-style:italic;font-variant:normal;font-weight:normal;font-stretch:normal;font-size:26.6667px;font-family:'Lucida Sans';-inkscape-font-specification:'Lucida Sans Italic';text-align:end;writing-mode:lr-tb;direction:ltr;white-space:pre;shape-inside:url(#rect6);display:inline;fill:#f14910;fill-opacity:1"
       x="0"
       y="0"><tspan
         x="470.81879"
         y="717.49489"
         id="tspan6">FOOD TRUCK</tspan></text></g></svg>
